<?xml version="1.0" encoding="utf-8"?>
<svg version="1.1" width="18px" height="16px" xmlns:xlink="http://www.w3.org/1999/xlink" xmlns="http://www.w3.org/2000/svg">
  <g transform="translate(-356 -194 )">
    <path d="M 17.8091517857143 5.31  C 17.9363839285714 5.43666666666667  18 5.58666666666667  18 5.76  C 18 5.93333333333333  17.9363839285714 6.08333333333333  17.8091517857143 6.21  L 12.6662946428571 11.33  C 12.5390625 11.4566666666667  12.3883928571429 11.52  12.2142857142857 11.52  C 12.0401785714286 11.52  11.8895089285714 11.4566666666667  11.7622767857143 11.33  C 11.6350446428571 11.2033333333333  11.5714285714286 11.0533333333333  11.5714285714286 10.88  L 11.5714285714286 8.32  L 9.32142857142857 8.32  C 8.66517857142857 8.32  8.07756696428572 8.34  7.55859375 8.38  C 7.03962053571429 8.42  6.52399553571429 8.49166666666667  6.01171875 8.595  C 5.49944196428571 8.69833333333333  5.05412946428572 8.84  4.67578125 9.02  C 4.29743303571429 9.2  3.94419642857143 9.43166666666667  3.61607142857143 9.715  C 3.28794642857143 9.99833333333333  3.02008928571429 10.335  2.8125 10.725  C 2.60491071428571 11.115  2.44252232142857 11.5766666666667  2.32533482142857 12.11  C 2.20814732142857 12.6433333333333  2.14955357142857 13.2466666666667  2.14955357142857 13.92  C 2.14955357142857 14.2866666666667  2.16629464285714 14.6966666666667  2.19977678571429 15.15  C 2.19977678571429 15.19  2.20814732142857 15.2683333333333  2.22488839285714 15.385  C 2.24162946428571 15.5016666666667  2.25 15.59  2.25 15.65  C 2.25 15.75  2.22154017857143 15.8333333333333  2.16462053571429 15.9  C 2.10770089285714 15.9666666666667  2.02901785714286 16  1.92857142857143 16  C 1.82142857142857 16  1.72767857142857 15.9433333333333  1.64732142857143 15.83  C 1.60044642857143 15.77  1.55691964285714 15.6966666666667  1.51674107142857 15.61  C 1.4765625 15.5233333333333  1.43136160714286 15.4233333333333  1.38113839285714 15.31  C 1.33091517857143 15.1966666666667  1.29575892857143 15.1166666666667  1.27566964285714 15.07  C 0.425223214285714 13.17  0 11.6666666666667  0 10.56  C 0 9.23333333333333  0.177455357142857 8.12333333333333  0.532366071428571 7.23  C 1.6171875 4.54333333333333  4.546875 3.2  9.32142857142857 3.2  L 11.5714285714286 3.2  L 11.5714285714286 0.640000000000001  C 11.5714285714286 0.466666666666665  11.6350446428571 0.316666666666665  11.7622767857143 0.19  C 11.8895089285714 0.0633333333333326  12.0401785714286 0  12.2142857142857 0  C 12.3883928571429 0  12.5390625 0.0633333333333326  12.6662946428571 0.19  L 17.8091517857143 5.31  Z " fill-rule="nonzero" fill="#000000" stroke="none" transform="matrix(1 0 0 1 356 194 )" />
  </g>
</svg>